# xmcd CD database file
#
# Track frame offsets:
#	150
#	17614
#	31861
#	47906
#	65899
#	83749
#	104149
#	119599
#	135939
#	151309
#
# Disc length: 2208 seconds
#
# Revision: 2
# Processed by: cddbd v1.5.1PL0 Copyright (c) Steve Scherf et al.
# Submitted via: CDex 1.51
#
DISCID=83089e0a
DTITLE=Nobody's Fault - Movin On
DYEAR=2003
DGENRE=Blues
TTITLE0=Stop Yor Messin
TTITLE1=Satisfaction Guaranteed
TTITLE2=Movin On
TTITLE3=Ridin Free
TTITLE4=One More Shot of Wiskey
TTITLE5=Cold Tired And Hungry
TTITLE6=Horse Shoes and Hand Grenades
TTITLE7=Low Down Texas Blues
TTITLE8=Bitty Bop
TTITLE9=Freinds Like You
EXTD=YEAR: 2003
EXTT0=
EXTT1=
EXTT2=
EXTT3=
EXTT4=
EXTT5=
EXTT6=
EXTT7=
EXTT8=
EXTT9=
PLAYORDER=
